<svg width="42" height="41" viewBox="0 0 42 41" fill="none" xmlns="http://www.w3.org/2000/svg">
<path d="M19.7739 13.6857L27.1761 17.9308V17.9921C27.5738 18.2223 27.9041 18.5531 28.1336 18.9512C28.3632 19.3493 28.484 19.8007 28.484 20.2603C28.484 20.7198 28.3632 21.1713 28.1336 21.5694C27.9041 21.9675 27.5738 22.2983 27.1761 22.5285L19.7739 26.7736C19.3755 27.0038 18.9237 27.1253 18.4636 27.1261C17.7685 27.1261 17.102 26.85 16.6105 26.3585C16.119 25.867 15.8429 25.2005 15.8429 24.5054V15.9845C15.8378 15.522 15.9551 15.0664 16.183 14.6639C16.4109 14.2614 16.7412 13.9264 17.1405 13.6929C17.5398 13.4594 17.9937 13.3358 18.4562 13.3345C18.9188 13.3332 19.3734 13.4544 19.7739 13.6857Z" fill="#251607"/>
</svg>
