<svg width="25" height="26" viewBox="0 0 25 26" fill="none" xmlns="http://www.w3.org/2000/svg">
<g clip-path="url(#clip0_242_1586)">
<path d="M0 0.5H7.8125V2.0625H9.375V3.625H12.5V5.1875H14.0625V6.75H15.625V8.3125H17.1875V6.75H15.625V5.1875H14.0625V3.625H12.5V2.0625H9.375V0.5H18.75V2.0625H21.875V3.625H23.4375V6.75H25V25.5H23.4375V23.9375H20.3125V20.8125H18.75V16.125H20.3125V11.4375H18.75V9.875H17.1875V11.4375H15.625V9.875H12.5V8.3125H9.375V6.75H6.25V5.1875H4.6875V11.4375H1.5625V9.875H3.125V8.3125H1.5625V6.75H0V0.5Z" fill="#251607"/>
<path d="M17.1875 11.4375H18.75V13H17.1875V11.4375Z" fill="#251607"/>
</g>
<defs>
<clipPath id="clip0_242_1586">
<rect width="25" height="25" fill="white" transform="translate(0 0.5)"/>
</clipPath>
</defs>
</svg>
