<svg width="25" height="26" viewBox="0 0 25 26" fill="none" xmlns="http://www.w3.org/2000/svg">
<path d="M8.33333 8.5H16.6667V10.6429H8.33333V8.5ZM4.16667 12.7857V10.6429H8.33333V12.7857H4.16667ZM2.08333 14.9286V12.7857H4.16667V14.9286H2.08333ZM2.08333 17.0714V14.9286H0V17.0714H2.08333ZM4.16667 19.2143H2.08333V17.0714H4.16667V19.2143ZM8.33333 21.3571H4.16667V19.2143H8.33333V21.3571ZM16.6667 21.3571V23.5H8.33333V21.3571H16.6667ZM20.8333 19.2143V21.3571H16.6667V19.2143H20.8333ZM22.9167 17.0714V19.2143H20.8333V17.0714H22.9167ZM22.9167 14.9286H25V17.0714H22.9167V14.9286ZM20.8333 12.7857H22.9167V14.9286H20.8333V12.7857ZM20.8333 12.7857V10.6429H16.6667V12.7857H20.8333ZM10.4167 13.8571H14.5833V18.1429H10.4167V13.8571Z" fill="#251607"/>
</svg>
