<svg width="42" height="41" viewBox="0 0 42 41" fill="none" xmlns="http://www.w3.org/2000/svg">
<g clip-path="url(#clip0_243_3153)">
<path d="M10.8152 9.02002H14.9102V10.3525H16.2752V11.685H19.0052V10.3525H20.3702V9.02002H24.4652V10.3525H25.8302V11.685H27.1952V13.0175H28.5602V17.015H27.1952V19.68H25.8302V22.345H24.4652V23.6775H23.1002V25.01H21.7352V26.3425H20.3702V27.675H19.0052V29.0075H17.6402V27.675H16.2752V26.3425H14.9102V25.01H13.5452V23.6775H12.1802V22.345H10.8152V21.0125H9.45021V19.68H8.08521V17.015H6.72021V13.0175H8.08521V11.685H9.45021V10.3525H10.8152V9.02002Z" fill="#251607"/>
</g>
<defs>
<clipPath id="clip0_243_3153">
<rect width="21.84" height="21.32" fill="white" transform="translate(6.72021 9.02002)"/>
</clipPath>
</defs>
</svg>
