<svg width="23" height="20" viewBox="0 0 23 20" fill="none" xmlns="http://www.w3.org/2000/svg">
<path fill-rule="evenodd" clip-rule="evenodd" d="M15.881 0.325434C16.3149 -0.108478 17.0185 -0.108478 17.4524 0.325434L20.7857 3.65877C21.2196 4.09269 21.2196 4.79621 20.7857 5.23013L17.4524 8.56346C17.0185 8.99734 16.3149 8.99734 15.881 8.56346C15.4471 8.12957 15.4471 7.42603 15.881 6.99211L17.3175 5.55563H6.50202C4.11893 5.55563 2.22223 7.50569 2.22223 10C2.22223 10.6137 1.72476 11.1111 1.11111 11.1111C0.497467 11.1111 0 10.6137 0 10C0 6.35784 2.81366 3.3334 6.50202 3.3334H17.3176L15.881 1.89679C15.4471 1.46287 15.4471 0.759357 15.881 0.325434ZM21.1111 8.8889C21.7248 8.8889 22.2223 9.38635 22.2223 10C22.2223 13.6981 19.1417 16.6668 15.5087 16.6668H4.90475L6.34124 18.1032C6.77515 18.5371 6.77515 19.2407 6.34124 19.6746C5.90732 20.1085 5.20381 20.1085 4.76988 19.6746L1.43655 16.3412C1.00263 15.9074 1.00263 15.2038 1.43655 14.7699L4.76988 11.4366C5.20381 11.0027 5.90732 11.0027 6.34124 11.4366C6.77515 11.8705 6.77515 12.574 6.34124 13.0079L4.90462 14.4446H15.5087C17.9471 14.4446 20 12.4383 20 10C20 9.38635 20.4975 8.8889 21.1111 8.8889Z" fill="#FFF0E1"/>
</svg>
